<?xml version="1.0" standalone="no"?>
<!DOCTYPE svg PUBLIC "-//W3C//DTD SVG 20010904//EN"
 "http://www.w3.org/TR/2001/REC-SVG-20010904/DTD/svg10.dtd">
<svg version="1.0" xmlns="http://www.w3.org/2000/svg"
 width="1019.000000pt" height="1019.000000pt" viewBox="0 0 1019.000000 1019.000000"
 preserveAspectRatio="xMidYMid meet">
<metadata>
Created by potrace 1.11, written by Peter Selinger 2001-2013
</metadata>
<g transform="translate(0.000000,1019.000000) scale(0.100000,-0.100000)"
fill="#000000" stroke="none">
<path d="M21 8713 c6 -15 16 -41 23 -58 7 -16 23 -52 34 -80 48 -114 85 -202
97 -230 7 -16 34 -82 60 -145 26 -63 53 -128 60 -145 8 -16 29 -68 49 -115 19
-47 53 -129 75 -182 23 -53 41 -99 41 -102 0 -3 11 -29 24 -58 30 -67 61 -141
62 -148 0 -3 9 -23 18 -45 10 -22 24 -53 30 -70 7 -16 23 -52 34 -80 18 -42
63 -150 114 -273 6 -15 12 -29 13 -32 1 -3 6 -16 12 -30 6 -14 20 -47 31 -75
11 -27 28 -68 38 -90 10 -22 18 -42 19 -45 2 -6 -16 38 261 -629 129 -311 241
-579 249 -596 7 -16 28 -66 45 -110 17 -44 36 -86 42 -92 6 -7 8 -13 5 -13 -5
0 7 -31 64 -157 10 -24 19 -45 19 -48 0 -4 9 -25 19 -48 28 -63 121 -285 141
-337 24 -64 49 -122 60 -142 6 -10 10 -25 10 -33 0 -8 5 -15 12 -15 6 0 9 -3
6 -6 -4 -3 5 -31 19 -62 31 -71 45 -104 49 -117 3 -10 108 -265 124 -300 5
-11 23 -54 40 -95 17 -41 35 -84 40 -95 5 -11 32 -76 60 -145 28 -69 57 -136
64 -150 8 -14 14 -27 14 -30 1 -9 61 -159 82 -205 5 -11 39 -92 75 -180 37
-88 73 -173 81 -189 8 -16 14 -33 14 -37 0 -5 11 -32 24 -61 21 -48 37 -85 41
-98 1 -3 6 -16 12 -30 6 -14 57 -135 113 -270 56 -135 107 -258 115 -275 14
-33 56 -133 75 -180 7 -16 56 -136 110 -265 l98 -235 242 0 242 0 23 40 c13
22 30 51 38 65 77 143 143 256 152 262 5 4 6 8 1 8 -5 0 -3 7 4 15 6 8 20 29
29 47 10 18 30 54 44 81 59 104 78 139 101 179 13 24 54 97 91 163 38 66 84
149 103 185 20 36 39 68 44 71 5 3 10 13 12 21 1 9 7 22 12 29 6 8 27 43 46
79 49 90 86 156 119 212 16 27 29 51 29 53 0 2 14 28 31 57 32 54 91 160 118
213 9 16 18 32 21 35 11 10 120 211 120 220 0 6 4 10 8 10 4 0 13 12 20 27 7
16 24 48 38 73 43 76 97 174 108 197 6 13 14 23 19 23 4 0 7 5 7 11 0 5 25 53
55 105 30 53 55 99 55 104 0 5 6 15 13 22 13 15 23 31 62 106 15 29 30 52 34
52 4 0 14 -12 22 -27 8 -15 31 -56 52 -90 20 -35 37 -67 37 -73 0 -5 4 -10 9
-10 5 0 11 -8 14 -17 4 -10 19 -40 34 -68 40 -71 142 -247 154 -265 5 -8 16
-28 25 -45 8 -16 21 -39 27 -50 7 -11 32 -54 55 -95 24 -41 47 -82 53 -90 5
-8 16 -28 24 -45 17 -33 37 -67 45 -75 3 -3 13 -21 24 -40 28 -52 66 -120 90
-160 12 -19 28 -48 36 -65 8 -16 17 -32 20 -35 5 -5 16 -25 57 -99 14 -25 50
-87 79 -138 30 -51 54 -97 54 -102 0 -6 4 -11 9 -11 5 0 14 -15 21 -32 8 -18
19 -40 26 -48 6 -8 25 -40 41 -70 16 -30 36 -66 45 -80 27 -41 89 -154 95
-172 3 -10 9 -18 14 -18 5 0 9 -4 9 -10 0 -5 18 -39 40 -75 22 -36 40 -67 40
-70 0 -3 18 -34 40 -70 22 -36 40 -68 40 -70 0 -3 11 -22 23 -43 27 -42 70
-118 101 -177 12 -22 23 -42 26 -45 3 -3 11 -16 19 -30 8 -14 31 -54 52 -90
l37 -65 242 0 243 0 39 95 c22 52 55 131 73 175 19 44 75 179 125 300 50 121
97 234 104 250 58 134 69 161 69 172 0 7 4 13 8 13 3 0 9 10 13 23 3 12 6 24
7 27 1 3 13 30 26 60 13 30 49 116 80 190 30 74 59 140 63 145 5 6 9 15 10 20
1 6 6 20 11 33 5 13 9 25 9 26 0 2 10 25 22 52 12 27 23 51 23 54 1 3 6 16 12
30 6 14 34 81 63 150 29 69 57 136 63 150 6 14 11 27 12 30 1 3 6 16 12 30 6
14 48 113 93 220 45 107 87 206 92 220 6 14 12 30 14 35 2 9 34 86 54 130 8
17 30 70 35 85 1 3 10 23 20 45 10 22 18 46 18 53 0 6 4 12 9 12 4 0 8 9 8 20
0 11 4 20 8 20 5 0 9 6 9 13 0 6 9 32 21 57 11 25 35 81 52 125 29 72 54 132
80 190 5 11 32 76 61 145 44 108 88 213 119 285 26 62 266 639 285 685 12 30
29 71 37 90 34 77 118 279 118 284 0 3 16 40 35 82 19 41 35 79 35 83 0 4 6
21 14 37 8 16 60 139 116 274 107 258 141 338 171 407 11 24 19 49 19 56 0 7
5 18 12 25 6 6 13 18 14 25 1 7 10 33 21 57 28 63 138 324 139 330 0 3 10 27
22 53 12 27 22 51 22 53 0 3 9 24 19 47 24 54 115 270 116 277 1 3 9 23 19 45
10 22 26 63 37 90 11 28 26 64 34 80 7 17 25 59 40 95 15 36 32 76 38 90 6 14
11 27 12 30 1 3 6 16 12 30 6 14 27 63 46 110 20 47 43 102 51 123 l16 37
-430 0 -430 0 -20 -44 c-11 -25 -20 -47 -20 -51 0 -3 -10 -27 -21 -53 -40 -89
-49 -110 -49 -115 0 -2 -8 -22 -17 -43 -9 -22 -17 -41 -18 -44 -1 -3 -10 -23
-20 -45 -18 -42 -31 -75 -34 -87 -2 -7 -49 -115 -71 -163 -5 -11 -18 -43 -29
-71 -11 -28 -29 -71 -40 -95 -11 -24 -41 -96 -66 -159 -48 -117 -99 -239 -115
-275 -10 -21 -33 -77 -35 -85 0 -3 -11 -27 -24 -55 -12 -27 -24 -54 -25 -60
-6 -22 -19 -52 -39 -90 -12 -22 -20 -41 -19 -43 1 -1 -5 -19 -14 -40 -8 -20
-36 -86 -60 -147 -25 -60 -51 -123 -59 -140 -7 -16 -23 -55 -35 -85 -12 -30
-29 -68 -38 -85 -9 -16 -15 -31 -14 -32 1 -2 -7 -23 -18 -49 -11 -25 -20 -48
-20 -50 0 -3 -12 -31 -26 -62 -15 -31 -27 -63 -27 -69 0 -7 -4 -13 -9 -13 -4
0 -8 -8 -8 -18 0 -10 -3 -22 -7 -26 -5 -4 -8 -11 -9 -14 -1 -8 -10 -30 -34
-87 -10 -22 -41 -96 -69 -165 -29 -69 -56 -134 -61 -145 -5 -11 -28 -65 -50
-120 -23 -55 -47 -113 -55 -130 -7 -16 -23 -54 -35 -84 -11 -30 -30 -75 -42
-100 -11 -25 -21 -50 -22 -56 -2 -5 -10 -28 -20 -50 -10 -22 -40 -94 -68 -160
-27 -66 -57 -136 -65 -155 -8 -19 -19 -44 -24 -55 -4 -11 -47 -114 -94 -230
-48 -115 -96 -230 -107 -255 -11 -25 -24 -55 -29 -67 -5 -13 -13 -33 -19 -45
-5 -13 -21 -52 -36 -88 -14 -36 -32 -78 -39 -95 -55 -126 -195 -468 -195 -476
0 -5 -5 -9 -11 -9 -5 0 -8 -4 -5 -8 2 -4 -2 -21 -9 -37 -8 -17 -50 -118 -95
-225 -44 -107 -88 -210 -96 -229 -9 -18 -17 -39 -19 -45 -2 -12 -26 -67 -56
-133 -10 -24 -19 -45 -19 -49 0 -3 -11 -29 -23 -57 -13 -29 -37 -85 -53 -124
-16 -40 -32 -73 -35 -73 -4 0 -14 15 -24 33 -9 17 -27 50 -40 72 -44 73 -64
110 -76 138 -6 15 -15 27 -20 27 -5 0 -9 4 -9 9 0 8 -149 277 -189 341 -25 41
-257 446 -266 464 -5 12 -12 23 -15 26 -9 9 -51 84 -63 113 -6 15 -15 27 -19
27 -4 0 -8 4 -8 10 0 5 -14 33 -31 62 -42 70 -66 111 -102 178 -17 30 -38 69
-48 85 -10 17 -31 53 -47 80 -16 28 -38 66 -49 85 -11 19 -34 61 -52 94 -18
32 -47 82 -63 110 -29 48 -55 94 -101 176 -10 19 -23 40 -27 45 -4 6 -19 32
-34 58 l-27 49 19 31 c11 18 36 63 56 100 20 37 46 84 58 105 11 20 44 80 73
132 29 52 61 111 72 130 56 99 89 159 108 197 12 23 27 48 32 55 6 7 28 47 50
88 67 127 227 415 232 420 4 3 20 33 37 66 34 66 76 141 98 177 7 12 32 56 54
97 22 41 67 124 101 184 34 60 61 112 61 116 0 4 7 13 15 20 8 7 13 16 10 20
-3 5 -2 10 2 12 8 3 19 21 89 153 20 39 40 72 43 75 3 3 16 25 28 50 12 25 36
70 54 100 41 72 184 330 222 400 17 30 69 125 117 210 48 85 103 184 122 220
19 36 44 81 55 100 56 99 88 158 102 185 8 17 17 32 20 35 3 3 18 28 32 55 14
28 38 71 53 98 l27 47 -2021 0 c-1112 0 -2019 -3 -2017 -7 2 -5 22 -39 44 -78
22 -38 51 -90 65 -115 14 -25 35 -62 47 -82 11 -21 31 -55 42 -75 25 -43 52
-92 99 -178 18 -33 44 -77 57 -97 12 -21 23 -40 23 -42 0 -3 16 -32 35 -65
l35 -60 910 2 c501 1 910 6 910 10 0 5 5 5 12 1 15 -9 182 -9 197 0 6 4 11 4
11 -1 0 -4 24 -7 52 -5 29 2 60 3 68 3 8 -1 30 -1 48 -1 l32 -1 -26 -47 c-15
-26 -37 -65 -49 -87 -13 -22 -33 -58 -45 -80 -13 -22 -43 -78 -68 -125 -25
-47 -48 -87 -51 -90 -3 -3 -24 -40 -46 -82 -22 -43 -43 -78 -47 -78 -5 0 -8
-8 -8 -19 0 -10 -7 -24 -15 -31 -8 -7 -15 -16 -15 -21 0 -5 -29 -61 -65 -124
-36 -63 -65 -119 -65 -125 0 -5 -4 -10 -8 -10 -5 0 -14 -16 -22 -35 -8 -19
-18 -35 -24 -35 -5 0 -6 -3 -3 -6 4 -4 -2 -19 -12 -33 -10 -14 -38 -64 -63
-111 -26 -47 -61 -112 -80 -145 -19 -33 -37 -67 -41 -75 -4 -8 -15 -28 -25
-45 -18 -29 -85 -151 -120 -217 -9 -18 -19 -35 -22 -38 -5 -5 -21 -34 -74
-135 -17 -33 -34 -61 -38 -63 -5 -2 -8 -7 -8 -11 0 -4 -30 -61 -66 -127 -36
-65 -82 -148 -101 -184 -20 -36 -43 -73 -51 -82 -8 -10 -12 -18 -9 -18 3 0
-14 -34 -38 -75 -25 -41 -41 -75 -37 -75 4 0 2 -4 -3 -8 -9 -6 -104 -174 -223
-392 -14 -25 -40 -71 -58 -103 -19 -32 -34 -62 -34 -67 0 -5 -6 -15 -12 -22
-7 -7 -25 -36 -39 -63 -38 -73 -86 -160 -134 -245 -119 -210 -255 -459 -255
-468 0 -6 -4 -12 -8 -14 -5 -1 -35 -52 -68 -113 -32 -60 -63 -118 -69 -127 -5
-9 -21 -36 -34 -60 -53 -98 -85 -155 -109 -198 -69 -123 -143 -256 -202 -365
-24 -44 -46 -84 -50 -90 -4 -5 -26 -44 -48 -85 -22 -41 -58 -106 -80 -145 -22
-38 -52 -94 -68 -122 -15 -29 -30 -53 -33 -53 -4 0 -32 64 -64 143 -33 78 -65
156 -72 172 -7 17 -19 46 -28 65 -8 19 -22 51 -31 72 -9 20 -16 39 -16 43 0 3
-9 27 -21 53 -12 26 -27 61 -34 77 -11 28 -32 76 -71 170 -10 22 -18 42 -19
45 -4 12 -20 50 -45 110 -16 36 -44 103 -63 150 -56 138 -266 642 -281 675
-23 52 -34 78 -57 135 -11 30 -27 69 -35 85 -8 17 -37 86 -65 155 -28 69 -62
149 -75 178 -13 29 -24 58 -24 65 0 7 -4 17 -8 22 -5 6 -17 30 -26 55 -10 25
-24 59 -31 75 -8 17 -41 95 -74 175 -33 80 -68 163 -77 185 -10 22 -18 45 -20
50 -1 6 -13 36 -28 67 -14 31 -26 59 -26 61 0 2 -10 26 -22 53 -12 27 -22 51
-23 54 0 3 -29 73 -63 155 -66 157 -68 163 -100 235 -10 25 -45 108 -77 185
-58 142 -73 179 -99 238 -8 18 -29 68 -47 112 -17 44 -39 98 -49 120 -10 22
-34 81 -54 130 -21 50 -43 104 -51 120 -7 17 -25 59 -40 95 -14 36 -33 80 -41
97 -8 18 -21 50 -28 70 -13 36 -21 56 -77 182 -13 30 -24 57 -25 60 0 3 -8 23
-17 45 -9 21 -17 40 -17 42 0 2 -10 26 -21 52 -31 69 -43 97 -83 197 -20 50
-41 99 -46 110 -11 23 -27 65 -30 80 -1 6 -5 15 -10 20 -11 15 -150 349 -150
363 0 7 -4 12 -10 12 -5 0 -9 3 -8 8 0 4 -2 15 -6 25 -8 16 -38 17 -432 17
l-424 0 11 -27z"/>
</g>
</svg>
