<svg xmlns="http://www.w3.org/2000/svg" style="isolation:isolate" viewBox="0 0 256 256">
  <defs/>
  <defs>
    <clipPath id="a">
      <path d="M0 0h256v256H0z"/>
    </clipPath>
  </defs>
  <g clip-path="url(#a)">
    <mask id="b">
      <path fill="#fff" fill-rule="evenodd" d="M91 134C38 150 0 198 0 256h256c0-58-38-106-91-122a72 72 0 10-74 0z"/>
    </mask>
    <path fill="none" stroke="#FFF" stroke-linecap="round" stroke-linejoin="round" stroke-miterlimit="3" stroke-width="16" d="M91 134C38 150 0 198 0 256h256c0-58-38-106-91-122a72 72 0 10-74 0z" mask="url(#b)"/>
    <path fill="none" d="M91 134C38 150 0 198 0 256h256c0-58-38-106-91-122a72 72 0 10-74 0z"/>
  </g>
</svg>
