<!DOCTYPE svg PUBLIC "-//W3C//DTD SVG 20010904//EN" "http://www.w3.org/TR/2001/REC-SVG-20010904/DTD/svg10.dtd">
<svg version="1.0" xmlns="http://www.w3.org/2000/svg" width="1200px" height="1200px" viewBox="0 0 12000 12000" preserveAspectRatio="xMidYMid meet">
<g id="layer101" fill="#000000" stroke="none">
 <path d="M922 9630 c-18 -11 -41 -34 -52 -52 -20 -33 -20 -55 -17 -3585 l2 -3552 21 -28 c11 -15 36 -36 55 -45 32 -17 295 -18 5069 -18 4774 0 5037 1 5070 18 19 9 45 32 57 51 l23 34 0 3546 c0 3521 0 3546 -20 3579 -11 18 -34 41 -52 52 -33 20 -61 20 -5078 20 -5017 0 -5045 0 -5078 -20z m9701 -367 c-961 -1232 -3187 -4069 -3193 -4071 -5 -2 -316 211 -690 473 -722 505 -720 504 -789 475 -16 -6 -343 -231 -727 -500 l-697 -488 -216 281 c-1128 1468 -2989 3895 -2995 3905 -6 9 934 12 4684 12 l4692 0 -69 -87z m225 -4901 l-3 -1570 -1582 1106 c-870 609 -1581 1112 -1579 1118 3 6 715 918 1583 2027 l1578 2016 3 -1564 c1 -860 1 -2270 0 -3133z m-8125 2648 c850 -1108 1547 -2019 1548 -2025 2 -7 -2197 -1555 -3033 -2135 l-88 -61 0 3133 c0 2639 2 3130 14 3118 7 -8 709 -922 1559 -2030z m5544 -2780 l2250 -1575 -2258 -3 c-1243 -1 -3275 -1 -4518 0 l-2258 3 2251 1577 c1238 867 2258 1576 2267 1575 9 -1 1029 -711 2266 -1577z"/>
 </g>

</svg>