<!DOCTYPE svg PUBLIC "-//W3C//DTD SVG 20010904//EN" "http://www.w3.org/TR/2001/REC-SVG-20010904/DTD/svg10.dtd">
<svg version="1.0" xmlns="http://www.w3.org/2000/svg" width="1200px" height="1200px" viewBox="0 0 12000 12000" preserveAspectRatio="xMidYMid meet">
<g id="layer101" fill="#020202" stroke="none">
 <path d="M932 10813 c-85 -42 -100 -116 -84 -406 41 -725 217 -1398 533 -2028 112 -224 180 -342 325 -559 204 -307 365 -503 632 -773 268 -270 490 -454 802 -661 212 -141 335 -214 538 -315 l143 -72 112 114 112 113 -155 74 c-786 380 -1450 958 -1934 1685 -142 213 -216 342 -327 570 -291 596 -434 1156 -484 1888 l-6 87 4856 0 4856 0 -6 -87 c-49 -729 -191 -1285 -479 -1878 -115 -237 -188 -364 -332 -580 -480 -721 -1127 -1288 -1910 -1672 l-171 -84 111 -114 111 -113 140 70 c368 184 726 424 1055 707 135 116 414 396 530 530 194 226 428 557 568 801 340 596 563 1269 646 1955 20 165 39 483 35 585 -5 97 -24 136 -83 164 -31 15 -444 16 -5068 16 -4616 0 -5036 -2 -5066 -17z"/>
 <path d="M5800 6394 c-551 -52 -1011 -231 -1440 -562 -109 -85 -357 -333 -442 -442 -298 -387 -474 -801 -545 -1285 -12 -88 -17 -183 -17 -355 0 -252 12 -372 60 -589 67 -298 202 -615 376 -876 202 -303 493 -585 804 -783 472 -298 1076 -443 1634 -391 635 59 1188 317 1636 764 83 82 180 188 216 235 299 388 474 801 545 1285 12 88 17 183 17 355 0 172 -5 267 -17 355 -71 484 -247 898 -545 1285 -85 109 -333 357 -442 442 -380 293 -788 469 -1252 539 -129 19 -478 33 -588 23z m540 -319 c764 -119 1410 -584 1754 -1264 124 -246 197 -480 238 -766 19 -136 16 -484 -6 -625 -120 -773 -583 -1419 -1265 -1764 -349 -176 -666 -251 -1061 -251 -395 0 -712 75 -1061 251 -682 345 -1145 990 -1266 1764 -24 160 -24 500 0 660 121 774 584 1419 1266 1764 193 97 383 164 581 205 83 17 133 25 300 45 75 9 420 -4 520 -19z"/>
 </g>

</svg>