<svg xmlns="http://www.w3.org/2000/svg" style="isolation:isolate" viewBox="0 0 256 256">
  <defs/>
  <defs>
    <clipPath id="a">
      <path d="M0 0h256v256H0z"/>
    </clipPath>
  </defs>
  <g clip-path="url(#a)">
    <mask id="b">
      <path fill="#fff" d="M80 0h96c12 0 22 10 22 22v212c0 12-10 22-22 22H80c-12 0-22-10-22-22V22C58 10 68 0 80 0z"/>
    </mask>
    <path fill="none" stroke="#FFF" stroke-linecap="round" stroke-linejoin="round" stroke-miterlimit="3" stroke-width="16" d="M80 0h96c12 0 22 10 22 22v212c0 12-10 22-22 22H80c-12 0-22-10-22-22V22C58 10 68 0 80 0z" mask="url(#b)"/>
    <path fill="none" d="M80 0h96c12 0 22 10 22 22v212c0 12-10 22-22 22H80c-12 0-22-10-22-22V22C58 10 68 0 80 0z"/>
    <path fill="#FFF" d="M120 236a8 8 0 1116 0 8 8 0 01-16 0z"/>
    <path stroke="#FFF" stroke-linecap="round" stroke-linejoin="round" stroke-miterlimit="3" stroke-width="8" d="M40 63v128M18 96v64M216 64v128M238 94v64"/>
  </g>
</svg>
