<!DOCTYPE svg PUBLIC "-//W3C//DTD SVG 20010904//EN" "http://www.w3.org/TR/2001/REC-SVG-20010904/DTD/svg10.dtd">
<svg version="1.0" xmlns="http://www.w3.org/2000/svg" width="1200px" height="1200px" viewBox="0 0 12000 12000" preserveAspectRatio="xMidYMid meet">
<g id="layer101" fill="#000000" stroke="none">
 <path d="M2430 10662 c-19 -11 -48 -36 -65 -56 l-30 -38 -3 -2301 c-2 -2229 -2 -2303 16 -2337 11 -19 36 -48 56 -65 33 -26 46 -30 101 -30 55 0 68 4 101 30 20 17 45 46 55 65 18 33 19 111 19 2217 l0 2183 825 0 825 0 0 -1183 c0 -1132 1 -1184 19 -1217 10 -19 35 -48 55 -65 l38 -30 813 0 813 0 38 30 c20 17 45 46 55 65 18 33 19 85 19 1217 l0 1183 1575 0 1575 0 0 -2183 c0 -2106 1 -2184 19 -2217 10 -19 35 -48 55 -65 33 -26 46 -30 101 -30 55 0 68 4 101 30 20 17 45 46 55 65 18 33 19 113 19 2325 0 2212 -1 2292 -19 2325 -10 19 -35 48 -55 65 l-38 30 -1801 3 c-1742 2 -1803 2 -1837 -16 -19 -11 -48 -36 -65 -56 l-30 -38 -3 -1194 -2 -1194 -575 0 -575 0 0 1183 c0 1132 -1 1184 -19 1217 -10 19 -35 48 -55 65 l-38 30 -1051 3 c-1011 2 -1053 1 -1087 -16z"/>
 <path d="M934 6661 c-76 -35 -115 -112 -100 -198 7 -34 254 -285 2539 -2571 1393 -1392 2546 -2539 2564 -2547 36 -18 90 -19 130 -5 16 6 514 497 1146 1128 l1117 1117 0 -575 c0 -645 -4 -611 74 -675 33 -26 46 -30 101 -30 55 0 68 4 101 30 79 65 74 8 74 850 l0 750 1244 1245 c1236 1236 1245 1245 1251 1292 20 134 -108 243 -232 198 -16 -6 -1073 -1056 -2478 -2460 -1348 -1348 -2455 -2450 -2460 -2450 -6 0 -1108 1098 -2450 2441 -1703 1704 -2452 2447 -2480 2460 -51 24 -89 24 -141 0z"/>
 </g>

</svg>