<!DOCTYPE svg PUBLIC "-//W3C//DTD SVG 20010904//EN" "http://www.w3.org/TR/2001/REC-SVG-20010904/DTD/svg10.dtd">
<svg version="1.0" xmlns="http://www.w3.org/2000/svg" width="1200px" height="1200px" viewBox="0 0 12000 12000" preserveAspectRatio="xMidYMid meet">
<g id="layer101" fill="#000000" stroke="none">
 <path d="M926 10667 c-21 -12 -47 -38 -57 -57 -18 -34 -19 -174 -19 -4598 0 -4553 0 -4563 20 -4602 13 -26 34 -47 60 -60 39 -20 48 -20 5070 -20 5022 0 5031 0 5070 20 26 13 47 34 60 60 20 39 20 44 18 4614 l-3 4575 -21 28 c-11 15 -36 36 -55 45 -32 17 -295 18 -5069 18 l-5035 0 -39 -23z m3189 -485 c98 -113 179 -213 179 -222 0 -8 -290 -347 -644 -752 l-645 -738 -31 33 c-49 50 -1644 1877 -1644 1882 0 3 586 5 1303 4 l1302 0 180 -207z m4973 -1601 c-871 -995 -1585 -1810 -1588 -1810 -3 0 -717 815 -1588 1810 l-1582 1809 3170 0 3170 0 -1582 -1809z m-6155 -471 c36 -22 79 -25 126 -9 24 8 203 207 719 797 378 433 696 797 708 811 l20 24 1443 -1649 c794 -907 1454 -1658 1468 -1668 36 -27 110 -32 150 -9 17 10 750 839 1628 1843 879 1004 1610 1838 1626 1855 l29 30 0 -4253 0 -4252 -4850 0 -4850 0 0 4250 0 4251 875 -1001 c481 -550 890 -1009 908 -1020z"/>
 <path d="M6066 4584 c-384 -59 -718 -300 -886 -639 -280 -564 -50 -1232 522 -1521 192 -97 325 -127 553 -127 181 0 246 9 391 58 533 179 868 703 793 1241 -89 642 -713 1091 -1373 988z m415 -312 c109 -29 193 -66 285 -128 275 -182 424 -510 373 -824 -26 -164 -102 -318 -220 -444 -258 -276 -671 -361 -1030 -211 -155 65 -325 212 -411 357 -47 80 -93 205 -107 298 -66 407 194 805 613 940 136 44 354 49 497 12z"/>
 </g>

</svg>